<svg width="41" height="41" viewBox="0 0 41 41" fill="none" xmlns="http://www.w3.org/2000/svg">
<g id="Frame">
<path id="Vector" d="M18.1666 28.1668L29.9166 16.4168L27.5833 14.0835L18.1666 23.5002L13.4166 18.7502L11.0833 21.0835L18.1666 28.1668ZM20.5 37.1668C18.1944 37.1668 16.0278 36.7293 14 35.8543C11.9722 34.9793 10.2083 33.7918 8.70831 32.2918C7.20831 30.7918 6.02081 29.0279 5.14581 27.0002C4.27081 24.9724 3.83331 22.8057 3.83331 20.5002C3.83331 18.1946 4.27081 16.0279 5.14581 14.0002C6.02081 11.9724 7.20831 10.2085 8.70831 8.7085C10.2083 7.2085 11.9722 6.021 14 5.146C16.0278 4.271 18.1944 3.8335 20.5 3.8335C22.8055 3.8335 24.9722 4.271 27 5.146C29.0278 6.021 30.7916 7.2085 32.2916 8.7085C33.7916 10.2085 34.9791 11.9724 35.8541 14.0002C36.7291 16.0279 37.1666 18.1946 37.1666 20.5002C37.1666 22.8057 36.7291 24.9724 35.8541 27.0002C34.9791 29.0279 33.7916 30.7918 32.2916 32.2918C30.7916 33.7918 29.0278 34.9793 27 35.8543C24.9722 36.7293 22.8055 37.1668 20.5 37.1668ZM20.5 33.8335C24.2222 33.8335 27.375 32.5418 29.9583 29.9585C32.5416 27.3752 33.8333 24.2224 33.8333 20.5002C33.8333 16.7779 32.5416 13.6252 29.9583 11.0418C27.375 8.4585 24.2222 7.16683 20.5 7.16683C16.7778 7.16683 13.625 8.4585 11.0416 11.0418C8.45831 13.6252 7.16665 16.7779 7.16665 20.5002C7.16665 24.2224 8.45831 27.3752 11.0416 29.9585C13.625 32.5418 16.7778 33.8335 20.5 33.8335Z" fill="#C8C8C8"/>
</g>
</svg>
